<svg xmlns="http://www.w3.org/2000/svg" viewBox="0 0 135.46668 84.288296">
  <defs>
    <radialGradient
      id="cloud-gradient"
      cx="127.4896"
      cy="213.3958"
      r="99.189598"
      gradientTransform="matrix(0.85026362,0,0,0.6228181,-40.000506,-84.996673)"
      gradientUnits="userSpaceOnUse"
    >
      <stop offset="0" stop-color="#ffffff" />
      <stop offset="0.2834" stop-color="#f9fdfd" />
      <stop offset="0.66390002" stop-color="#d9f1f1" />
      <stop offset="1" stop-color="#a0d7db" />
    </radialGradient>
  </defs>
  <path
    fill="url(#cloud-gradient)"
    stroke="#ffffff"
    stroke-width="0.850262"
    stroke-miterlimit="10"
    d="m 118.26756,32.706263 c 0.14879,-0.91999 0.22945,-1.85954 0.22945,-2.81694 0,-10.68016 -8.82318,-20.12488 -20.678424,-20.12488 -6.009652,0 -11.440302,3.01502 -15.337042,6.60059 -2.28551,-8.73304 -9.91577,-15.93988992 -18.98386,-15.93988992 -9.96423,0 -18.19393,7.75183992 -19.49994,17.80791992 -1.90543,-0.82814 -3.99199,-1.28984 -6.18311,-1.28984 -7.20938,0 -12.52354,6.52492 -14.59306,13.35509 -0.89023,-0.12597 -1.79917,-0.19474 -2.72426,-0.19474 -10.6512391,0 -20.07217882,7.05972 -20.07217882,17.71099 0,10.6504 8.63444972,19.28481 19.28484882,19.28481 2.47424,0 4.8363,-0.47102 7.01042,-1.3196 1.46669,7.17538 7.81475,12.57371 15.42377,12.57371 3.83382,0 7.34541,-1.37317 10.07562,-3.65103 3.83639,5.53435 10.23039,9.16073 17.47463,9.16073 7.69913,0 14.44174,-4.09402 18.17011,-10.22357 3.31688,2.9317 7.673652,4.71387 12.448746,4.71387 8.79255,0 14.548,-6.80383 16.60988,-14.9553 0.11472,0.003 17.31732,1.57469 18.10381,-15.34897 0.41153,-8.84866 -7.9236,-15.25371 -16.75954,-15.34298 z"
  />
</svg>
